/* XPM */
static const char* Aria_xpm[] = {
"32 32 16 1",
" 	c None",
".	c #49281A",
"+	c #C65026",
"@	c #5A5856",
"#	c #7C4A29",
"$	c #B53425",
"%	c #9D1F1F",
"&	c #CE6C24",
"*	c #DD8A2B",
"=	c #B2966A",
"-	c #EAD1A4",
";	c #888478",
">	c #A6A19C",
",	c #E5E6DF",
"'	c #E9B978",
")	c #D7C099",
"                                ",
"                                ",
"                          .  +. ",
"                          .     ",
"                           ...  ",
"                          @.#.  ",
"                            .   ",
"                         .      ",
"                       ..       ",
"               .+$$.  .         ",
"              ++%%+$ ..         ",
"             .+$%$%  .          ",
"             +$%%. ..+          ",
"            .$$$. ..+&+         ",
"            %$% ...&&&*         ",
"           .%% . @=---=         ",
"       .  .$%$..;>,,,-#         ",
"      $+$+%%$++#>,,,-&          ",
"    $$$$%%%.+&',--,'.           ",
"   $%%%$$$+$.=-=-;&             ",
"  .$$$$+% #+&>>)@               ",
"  $$$$$$.  &-,=;                ",
"  +$%$$$   *,=,                 ",
"  +$+$+  .*',>)                 ",
"  .$++. $&*-,,-.                ",
"   ++  ++&*-,,&                 ",
"   .  $+&&*','                  ",
"     %+&&&&''+                  ",
"     .++&&&*&                   ",
"       #+&+#                    ",
"                                ",
"                                "};
